<?xml version="1.0" encoding="utf-8"?>
<!-- Generator: Adobe Illustrator 22.1.0, SVG Export Plug-In . SVG Version: 6.00 Build 0)  -->
<svg version="1.1" id="Layer_1" xmlns="http://www.w3.org/2000/svg" xmlns:xlink="http://www.w3.org/1999/xlink" x="0px" y="0px"
	 viewBox="0 0 512 512" style="enable-background:new 0 0 512 512;" xml:space="preserve">
<style type="text/css">
	.st0{fill:#F9F189;}
	.st1{fill:#7F3F98;}
	.st2{fill:none;stroke:#7F3F98;stroke-width:4;stroke-miterlimit:10;}
</style>
<rect x="0" y="0" class="st0" width="512" height="512"/>
<g>
	<g>
		<path class="st1" d="M262.1,186.9c4.8-6.2,9.4-12,13.9-17.9c17.9-23.3,32.6-40,51-52.2c13.3-8.8,41.8-27.7,70.7-18.1
			c24.9,8.3,42.1,35.2,46.2,67c0.7,6.1,1.4,14.7,1.3,25.1c-0.6,47-17.7,81.8-27.6,101.5c-15.3,30.3-36.1,56.5-60.1,80.2
			c-30.2,29.8-65.7,52-104.6,68.8c-1,0.4-2.1,0.6-3.2,0.9c13.8-11.3,28.4-21,41.9-32.2c27.2-22.5,53.1-46.2,73.3-75.4
			c19.1-27.7,30.8-58.4,36-91.5c2.6-16.5,2.5-33.2,0.1-49.8c-1.5-10.6-4.9-20.6-10.2-29.8c-10.3-18-28.3-25.5-48.6-21.1
			c-19.9,4.3-36.1,15.2-51.2,28.2c-11.2,9.6-22.4,19.3-32.8,29.8c-1.5,1.5-2.9,3.1-6,3.3c1-2.1,2.1-4.3,3.4-6.5
			C257.7,193.4,259.9,189.9,262.1,186.9"/>
	</g>
	<g>
		<path class="st1" d="M249.9,160.6c-4.8-6.2-9.4-12-13.9-17.9c-17.9-23.3-32.6-40-51-52.2c-13.3-8.8-41.8-27.7-70.7-18.1
			c-24.9,8.3-42.1,35.2-46.2,67c-0.7,6.1-1.4,14.7-1.3,25.1c0.6,47,17.7,81.8,27.6,101.5c15.3,30.3,36.1,56.5,60.1,80.2
			c30.2,29.8,65.7,52,104.6,68.8c1,0.4,2.1,0.6,3.2,0.9c-13.8-11.3-28.4-21-41.9-32.2c-27.2-22.5-53.1-46.2-73.3-75.4
			c-19.1-27.7-30.8-58.4-36-91.5c-2.6-16.5-2.5-33.2-0.1-49.8c1.5-10.6,4.9-20.6,10.2-29.8c10.3-18,28.3-25.5,48.6-21.1
			c19.9,4.3,36.1,15.2,51.2,28.2c11.2,9.6,22.4,19.3,32.8,29.8c1.5,1.5,2.9,3.1,6,3.3c-1-2.1-2.1-4.3-3.4-6.5
			C254.3,167.1,252.1,163.6,249.9,160.6"/>
	</g>
</g>
<g>
	<path class="st2" d="M252.3,227.9c-1.2,0.1-2.3,0.5-3.4,1.1c-5,2.8-8.2,10.3-4.2,15.2c1,1.3,0.7,2.2-1,2.4
		c-1.1,0.2-2.1,0.6-3.1,1.1c-6.6,4-6.9,12.3-0.6,17.6c2.7,2.2,2.7,2.2-0.1,4.4c-4.7,3.6-4.5,9.5,0.5,12.9c3.1,2.1,6.7,2.9,10,4.6
		c7.8,3.9,16,6.9,24,10.2c2.4,1,4.9,1.9,7.4,2.7c8.2,2.8,16.6,5.2,25,7.2c8.6,2,16.6,5.9,24.7,9.4c1,0.4,1.9,0.9,2.9,1.1
		c2.7,0.8,3.9,0.3,4.8-2.4c1.8-5,3.7-10,5.6-15c3.6-9.6,7.9-18.8,13.2-27.6c1.9-3.2,1.5-5-1.8-6.8c-1-0.6-2.1-1-3.2-1.5
		c-4.5-2-8.9-3.9-13.4-5.9c-7.7-3.5-11.8-9.3-11.7-18c0.1-8.5-1.3-16.8-4.3-24.7c-2.2-6-2.7-12-1.3-18.2c1-4.3,2.1-8.7,2.7-13.1
		c0.5-4.2-1.4-6.5-5.7-6.4c-6.1,0-10.2,3.1-13,8.3c-2.1,4-3.3,8.2-4.1,12.7c-1.1,6.3-1.3,12.7-2,19.1c-0.5,4.3-1.7,5-5.6,3.3
		c-4.2-1.8-8.3-3.6-12.4-5.5c0,0,0,0,0,0c-4-1.8-8-3.5-12-5.3c-1.5-0.7-3-1.1-4.6-1.5c-6.6-1.6-15.8,3.7-13.5,13
		c0.3,1.2,0.8,2.2,1.4,3.3C254.2,226.8,254,227.7,252.3,227.9z"/>
	<path class="st2" d="M155.5,245.8c0.7,0.4,1.4,0.7,2.1,1c5,2.2,10,4.3,14.9,6.6c7.5,3.5,11.6,9.1,11.6,17.7
		c-0.1,8.3,1.2,16.5,4.1,24.3c2.5,6.6,3,13.2,1.2,20.1c-1.1,4.2-2.1,8.5-2.5,12.9c-0.2,2.6,0.7,4.2,3.1,5c1.3,0.5,2.7,0.6,4.1,0.4
		c5.6-0.7,9.4-3.7,11.9-8.7c2.9-5.8,4-12,4.7-18.3c0.5-4.7,0.8-9.4,1.4-14.1c0.4-3.2,1.7-3.8,4.6-2.5c4.3,1.8,8.5,3.7,13.4,5.9
		c4.9,1.9,9.9,4.8,15.6,6.5c4.5,1.3,9.4-0.1,12.3-3.6c1.5-1.9,1.5-2.3-0.7-3.3c-6-2.7-12.1-5.3-18.1-8c-1-0.4-2-0.9-2.9-1.7
		c-5.2-4.5-6.2-11.2-2.5-17.3c0.5-0.8,0.9-1.5,0.1-2.4c-5.5-6.3-3.7-17.3,2.9-22.1c1.3-1,1.6-2,1.4-3.5c-0.6-5.7,1.3-10.7,5.7-14
		c2.9-2.2,3.5-4.2,2.7-7.3c-0.2-0.8-0.4-1.4-1.2-1.7c-8.2-3.4-16.4-6.5-24.8-9.1c-6-1.9-12.2-2.9-18.1-4.7c-7.9-2.4-15.5-5.9-23-9.2
		c-4.3-1.9-5.6-1.3-7.1,3.1c0,0.1-0.1,0.3-0.1,0.4c-2.1,6.3-4.5,12.6-7,18.7c-3.2,7.8-6.9,15.3-11.2,22.6
		C152,242.3,152.6,244.1,155.5,245.8z"/>
</g>
</svg>
